<?xml version="1.0" encoding="UTF-8" standalone="no"?>
<!DOCTYPE svg PUBLIC "-//W3C//DTD SVG 1.1//EN" "http://www.w3.org/Graphics/SVG/1.1/DTD/svg11.dtd">
<svg version="1.1" xmlns="http://www.w3.org/2000/svg" xmlns:xlink="http://www.w3.org/1999/xlink" preserveAspectRatio="xMidYMid meet" viewBox="0 0 640 640" width="75" height="75"><defs><path d="M640 320C640 496.61 496.61 640 320 640C143.39 640 0 496.61 0 320C0 143.39 143.39 0 320 0C496.61 0 640 143.39 640 320Z" id="drIdXrZtP"></path><path d="M143.58 140L500 140L500 500L143.58 500L143.58 140Z" id="arKtWdPud"></path><linearGradient id="gradientbLFNnQjuJ" gradientUnits="userSpaceOnUse" x1="321.79" y1="140" x2="321.79" y2="500"><stop style="stop-color: #b32525;stop-opacity: 1" offset="0%"></stop><stop style="stop-color: #010000;stop-opacity: 1" offset="100%"></stop></linearGradient><path d="M390 69.14C390 107.29 358.63 138.27 320 138.27C281.37 138.27 250 107.29 250 69.14C250 30.98 281.37 0 320 0C358.63 0 390 30.98 390 69.14Z" id="eb2MOJgOU"></path><radialGradient id="gradienta2fpSrpBEI" gradientUnits="userSpaceOnUse" cx="320" cy="0" dx="320" dy="138.27" r="138.27"><stop style="stop-color: #1c4ef0;stop-opacity: 1" offset="0%"></stop><stop style="stop-color: #010000;stop-opacity: 1" offset="100%"></stop></radialGradient><path d="M642.39 320C642.39 358.16 611.02 389.14 572.39 389.14C533.75 389.14 502.39 358.16 502.39 320C502.39 281.84 533.75 250.86 572.39 250.86C611.02 250.86 642.39 281.84 642.39 320Z" id="b2blciVkNZ"></path><radialGradient id="gradientehHHKxNbe" gradientUnits="userSpaceOnUse" cx="572.39" cy="250.86" dx="572.39" dy="389.14" r="138.27"><stop style="stop-color: #1c4ef0;stop-opacity: 1" offset="0%"></stop><stop style="stop-color: #010000;stop-opacity: 1" offset="100%"></stop></radialGradient><path d="M140 320C140 358.16 108.63 389.13 70 389.13C31.37 389.13 0 358.16 0 320C0 281.84 31.37 250.87 70 250.87C108.63 250.87 140 281.84 140 320Z" id="b1iDyrZ8Xp"></path><radialGradient id="gradientb5aG0TAMMu" gradientUnits="userSpaceOnUse" cx="70" cy="250.86" dx="70" dy="389.13" r="138.27"><stop style="stop-color: #1c4ef0;stop-opacity: 1" offset="0%"></stop><stop style="stop-color: #010000;stop-opacity: 1" offset="100%"></stop></radialGradient><path d="M390 570.87C390 609.02 358.63 640 320 640C281.37 640 250 609.02 250 570.87C250 532.71 281.37 501.73 320 501.73C358.63 501.73 390 532.71 390 570.87Z" id="c4WIYV7PM"></path><radialGradient id="gradientf5ox4ls6p" gradientUnits="userSpaceOnUse" cx="320" cy="501.73" dx="320" dy="640" r="138.27"><stop style="stop-color: #1c4ef0;stop-opacity: 1" offset="0%"></stop><stop style="stop-color: #010000;stop-opacity: 1" offset="100%"></stop></radialGradient></defs><g><g><g><g><filter id="shadow10563378" x="-9" y="-9" width="659" height="659" filterUnits="userSpaceOnUse" primitiveUnits="userSpaceOnUse"><feFlood></feFlood><feComposite in2="SourceAlpha" operator="in"></feComposite><feGaussianBlur stdDeviation="1"></feGaussianBlur><feOffset dx="1" dy="1" result="afterOffset"></feOffset><feFlood flood-color="#ffffff" flood-opacity="0.5"></feFlood><feComposite in2="afterOffset" operator="in"></feComposite><feMorphology operator="dilate" radius="1"></feMorphology><feComposite in2="SourceAlpha" operator="out"></feComposite></filter><path d="M640 320C640 496.61 496.61 640 320 640C143.39 640 0 496.61 0 320C0 143.39 143.39 0 320 0C496.61 0 640 143.39 640 320Z" id="b2HIO2ZLG" fill="white" fill-opacity="1" filter="url(#shadow10563378)"></path></g><use xlink:href="#drIdXrZtP" opacity="1" fill="#ffffff" fill-opacity="1"></use><g><use xlink:href="#drIdXrZtP" opacity="1" fill-opacity="0" stroke="#ffffff" stroke-width="1" stroke-opacity="1"></use></g><g><filter id="shadow10439259" x="-9" y="-9" width="659" height="659" filterUnits="userSpaceOnUse" primitiveUnits="userSpaceOnUse"><feFlood></feFlood><feComposite in2="SourceAlpha" operator="out"></feComposite><feGaussianBlur stdDeviation="1"></feGaussianBlur><feOffset dx="1" dy="1" result="afterOffset"></feOffset><feFlood flood-color="#ffffff" flood-opacity="0.8"></feFlood><feComposite in2="afterOffset" operator="in"></feComposite><feMorphology operator="dilate" radius="1"></feMorphology><feComposite in2="SourceAlpha" operator="in"></feComposite></filter><path d="M640 320C640 496.61 496.61 640 320 640C143.39 640 0 496.61 0 320C0 143.39 143.39 0 320 0C496.61 0 640 143.39 640 320Z" id="eTLWmw6ZR" fill="white" fill-opacity="1" filter="url(#shadow10439259)"></path></g></g><g><use xlink:href="#arKtWdPud" opacity="1" fill="url(#gradientbLFNnQjuJ)"></use></g><g><use xlink:href="#eb2MOJgOU" opacity="1" fill="url(#gradienta2fpSrpBEI)"></use><g><use xlink:href="#eb2MOJgOU" opacity="1" fill-opacity="0" stroke="#ffffff" stroke-width="1" stroke-opacity="0"></use></g></g><g><use xlink:href="#b2blciVkNZ" opacity="1" fill="url(#gradientehHHKxNbe)"></use><g><use xlink:href="#b2blciVkNZ" opacity="1" fill-opacity="0" stroke="#de7248" stroke-width="1" stroke-opacity="0"></use></g></g><g><use xlink:href="#b1iDyrZ8Xp" opacity="1" fill="url(#gradientb5aG0TAMMu)"></use><g><use xlink:href="#b1iDyrZ8Xp" opacity="1" fill-opacity="0" stroke="#de7248" stroke-width="1" stroke-opacity="0"></use></g></g><g><use xlink:href="#c4WIYV7PM" opacity="1" fill="url(#gradientf5ox4ls6p)"></use><g><use xlink:href="#c4WIYV7PM" opacity="1" fill-opacity="0" stroke="#ffffff" stroke-width="1" stroke-opacity="0"></use></g></g></g></g></svg>